<?xml version="1.0" standalone="no"?>
<svg xmlns:xlink="http://www.w3.org/1999/xlink" id="wave" style="transform:rotate(180deg); transition: 0.3s" viewBox="0 0 1440 100" version="1.1" xmlns="http://www.w3.org/2000/svg"><defs><linearGradient id="sw-gradient-0" x1="0" x2="0" y1="1" y2="0"><stop stop-color="rgba(255, 250, 250, 1)" offset="0%"/><stop stop-color="rgba(255, 250, 250, 1)" offset="100%"/></linearGradient></defs><path style="transform:translate(0, 0px); opacity:1" fill="url(#sw-gradient-0)" d="M0,0L26.7,3.3C53.3,7,107,13,160,16.7C213.3,20,267,20,320,31.7C373.3,43,427,67,480,65C533.3,63,587,37,640,23.3C693.3,10,747,10,800,15C853.3,20,907,30,960,41.7C1013.3,53,1067,67,1120,73.3C1173.3,80,1227,80,1280,73.3C1333.3,67,1387,53,1440,51.7C1493.3,50,1547,60,1600,60C1653.3,60,1707,50,1760,41.7C1813.3,33,1867,27,1920,26.7C1973.3,27,2027,33,2080,43.3C2133.3,53,2187,67,2240,61.7C2293.3,57,2347,33,2400,23.3C2453.3,13,2507,17,2560,23.3C2613.3,30,2667,40,2720,51.7C2773.3,63,2827,77,2880,83.3C2933.3,90,2987,90,3040,90C3093.3,90,3147,90,3200,75C3253.3,60,3307,30,3360,16.7C3413.3,3,3467,7,3520,16.7C3573.3,27,3627,43,3680,46.7C3733.3,50,3787,40,3813,35L3840,30L3840,100L3813.3,100C3786.7,100,3733,100,3680,100C3626.7,100,3573,100,3520,100C3466.7,100,3413,100,3360,100C3306.7,100,3253,100,3200,100C3146.7,100,3093,100,3040,100C2986.7,100,2933,100,2880,100C2826.7,100,2773,100,2720,100C2666.7,100,2613,100,2560,100C2506.7,100,2453,100,2400,100C2346.7,100,2293,100,2240,100C2186.7,100,2133,100,2080,100C2026.7,100,1973,100,1920,100C1866.7,100,1813,100,1760,100C1706.7,100,1653,100,1600,100C1546.7,100,1493,100,1440,100C1386.7,100,1333,100,1280,100C1226.7,100,1173,100,1120,100C1066.7,100,1013,100,960,100C906.7,100,853,100,800,100C746.7,100,693,100,640,100C586.7,100,533,100,480,100C426.7,100,373,100,320,100C266.7,100,213,100,160,100C106.7,100,53,100,27,100L0,100Z"/></svg>